<svg width="149" height="36" viewBox="0 0 149 36" fill="none" xmlns="http://www.w3.org/2000/svg">
<path d="M6.03135 29V10.775H7.53135V27.7H15.8313V29H6.03135ZM23.5749 29.325C20.3499 29.325 17.5499 26.775 17.5499 22.35C17.5499 17.9 20.3499 15.325 23.5749 15.325C26.7999 15.325 29.5999 17.9 29.5999 22.35C29.5999 26.775 26.7999 29.325 23.5749 29.325ZM23.5749 28.075C26.1749 28.075 28.0999 25.75 28.0999 22.35C28.0999 18.95 26.1749 16.6 23.5749 16.6C20.9749 16.6 19.0749 18.95 19.0749 22.35C19.0749 25.75 20.9749 28.075 23.5749 28.075ZM36.0286 29.325C33.8786 29.325 32.1536 28.125 32.1536 25.65C32.1536 22.7 34.7786 21.3 40.6536 20.625C40.7036 18.65 40.1286 16.6 37.6036 16.6C35.8536 16.6 34.3286 17.425 33.4036 18.125L32.7536 17.075C33.7786 16.375 35.6286 15.325 37.8036 15.325C40.9786 15.325 42.1036 17.6 42.1036 20.55V29H40.8786L40.7286 27.3H40.6786C39.3286 28.4 37.7286 29.325 36.0286 29.325ZM36.3286 28.1C37.8036 28.1 39.0786 27.4 40.6536 26.025V21.7C35.4036 22.3 33.6036 23.525 33.6036 25.575C33.6036 27.4 34.8536 28.1 36.3286 28.1ZM51.1755 29.325C47.8255 29.325 45.6505 26.825 45.6505 22.35C45.6505 18.05 48.4005 15.325 51.5505 15.325C53.1505 15.325 54.2255 15.925 55.5255 16.95L55.4255 14.55V9.125H56.8755V29H55.6755L55.5255 27.325H55.4505C54.3755 28.4 52.9005 29.325 51.1755 29.325ZM51.4255 28.05C52.8505 28.05 54.1005 27.325 55.4255 25.95V18.25C54.1005 17.05 52.9505 16.6 51.7005 16.6C49.1505 16.6 47.2005 19.075 47.2005 22.35C47.2005 25.8 48.7255 28.05 51.4255 28.05ZM67.5792 29V10.775H69.5792L73.3292 21.25C73.8042 22.575 74.2792 23.925 74.7542 25.25H74.8542C75.3292 23.925 75.7542 22.575 76.2042 21.25L79.9542 10.775H81.9542V29H80.5292V17.45C80.5292 15.95 80.6292 13.95 80.7042 12.425H80.6042L79.1792 16.5L75.3542 27.05H74.1542L70.3042 16.5L68.8792 12.425H68.7792C68.8542 13.95 68.9542 15.95 68.9542 17.45V29H67.5792ZM92.0319 29.325C88.8069 29.325 86.0069 26.775 86.0069 22.35C86.0069 17.9 88.8069 15.325 92.0319 15.325C95.2569 15.325 98.0569 17.9 98.0569 22.35C98.0569 26.775 95.2569 29.325 92.0319 29.325ZM92.0319 28.075C94.6319 28.075 96.5569 25.75 96.5569 22.35C96.5569 18.95 94.6319 16.6 92.0319 16.6C89.4319 16.6 87.5319 18.95 87.5319 22.35C87.5319 25.75 89.4319 28.075 92.0319 28.075ZM101.951 29V15.675H103.151L103.326 18.15H103.376C104.276 16.475 105.601 15.325 107.151 15.325C107.676 15.325 108.076 15.4 108.501 15.625L108.201 16.925C107.751 16.75 107.501 16.7 106.976 16.7C105.801 16.7 104.376 17.575 103.401 20.05V29H101.951ZM115.767 29.325C112.342 29.325 109.567 26.725 109.567 22.35C109.567 18.025 112.417 15.325 115.417 15.325C118.642 15.325 120.567 17.625 120.567 21.525C120.567 21.9 120.542 22.25 120.492 22.575H111.042C111.117 25.825 113.042 28.1 115.917 28.1C117.342 28.1 118.467 27.65 119.467 26.95L120.017 28.025C118.942 28.7 117.692 29.325 115.767 29.325ZM111.042 21.425H119.242C119.242 18.2 117.767 16.575 115.442 16.575C113.267 16.575 111.317 18.375 111.042 21.425Z" fill="black"/>
<path d="M127 6L141 18L127 30" stroke="black"/>
<path d="M134 6L148 18L134 30" stroke="black"/>
</svg>
